<svg width="104" height="100" viewBox="0 0 104 100" fill="none" xmlns="http://www.w3.org/2000/svg">
<path fill-rule="evenodd" clip-rule="evenodd" d="M0 50.0017V100.003L52.114 99.894L104.228 99.7845L104.344 49.8922L104.46 0H52.2299H0V50.0017ZM0.220772 50.2155C0.220316 77.7155 0.275053 89.0289 0.342105 75.3565C0.408702 61.6841 0.408702 39.1841 0.342105 25.3565C0.275053 11.5289 0.220772 22.7155 0.220772 50.2155ZM49.4912 11.2336C47.2333 11.6772 44.9754 12.2315 44.4737 12.4659C43.9719 12.7004 42.7814 13.1862 41.8285 13.5453C36.0068 15.7379 28.7943 22.2267 25.6365 28.1121C22.0886 34.725 22.1889 33.7853 22.0038 62.069C21.9125 75.9375 21.9632 87.9151 22.1151 88.6853C22.3792 90.0194 22.49 90.0862 24.4432 90.0862C27.2767 90.0862 33.1409 88.9112 35.4156 87.8871C38.4695 86.5129 41.7122 83.0267 43.659 79.025L44.8828 76.5086L44.9066 58.4052C44.9339 37.0966 44.704 38.1772 50.1034 33.9875C51.0544 33.2496 54.7045 32.3241 56.5199 32.3603C58.874 32.4073 60.8017 33.1797 63.0965 34.9953C65.9488 37.2509 67.0526 39.4638 67.0526 42.925C67.0526 48.7134 64.1032 51.8823 57.2415 53.4664C54.9859 53.9871 52.7832 54.5897 52.3467 54.8056C50.5102 55.7138 50.1754 57.3539 50.1754 65.4375C50.1754 72.597 50.2443 73.2422 51.121 74.2953C52.0041 75.3565 52.3106 75.431 55.7965 75.4323C62.0976 75.4341 69.8866 73.2535 74.9721 70.0638C77.5042 68.4759 82.7721 63.5095 84.2455 61.3228C84.6875 60.6664 85.1669 60.0323 85.311 59.9138C86.0062 59.3414 88.0711 54.9832 89.0016 52.1228C89.8884 49.3987 90.0407 47.9922 90.0248 42.6724C90.0015 35.0461 89.3939 33.0754 84.51 24.794C82.5003 21.3862 73.6803 14.4871 69.8401 13.3194C68.9342 13.044 67.9512 12.6379 67.6557 12.4168C66.9149 11.8625 57.7405 10.3353 55.458 10.3862C54.434 10.4091 51.7491 10.7905 49.4912 11.2336Z" fill="#EC6362"/>
</svg>
