<svg xmlns="http://www.w3.org/2000/svg" width="556.67004" height="400.96784" viewBox="0 0 556.67004 400.96784" xmlns:xlink="http://www.w3.org/1999/xlink"><circle cx="52.33502" cy="393.34936" r="7" fill="#3f3d56"/><path d="M36.53583,191.66603c.58638-1.98285,1.57199-3.66886,2.73665-4.86656l4.39294-19.24208,9.095,2.35818-5.43543,19.26527c.32593,1.63851,.23601,3.5894-.35037,5.57224-1.33959,4.52981-4.76233,7.51085-7.64493,6.65838-2.8826-.85247-4.13344-5.21563-2.79386-9.74543h0Z" fill="#ffb6b6"/><g><polygon points="124.07155 378.75852 115.46399 378.96165 110.666 340.29114 123.36858 339.99054 124.07155 378.75852" fill="#ffb6b6"/><path d="M94.54013,396.71647h0c0,1.45409,1.03191,2.63289,2.30485,2.63289h17.08527s1.68133-6.7585,8.53637-9.66706l.47312,9.66706h8.81369l-1.06787-15.5442s2.35771-8.3162-2.53875-12.5672c-4.89651-4.251-.93052-3.65923-.93052-3.65923l-1.9262-9.62068-13.31844,1.56616-.09793,15.10222-6.46334,14.99036-9.48016,4.68304c-.84378,.4168-1.39,1.3665-1.39,2.41661l-.00011,.00003Z" fill="#2f2e41"/></g><g><polygon points="67.46589 368.65037 58.85833 368.8535 54.06034 330.18299 66.76292 329.88239 67.46589 368.65037" fill="#ffb6b6"/><path d="M37.93447,386.60832h0c0,1.45409,1.03191,2.63289,2.30485,2.63289h17.08527s1.68133-6.7585,8.53637-9.66706l.47312,9.66706h8.81369l-1.06787-15.5442s2.35771-8.3162-2.53875-12.5672c-4.89651-4.251-.93052-3.65923-.93052-3.65923l-1.9262-9.62068-13.31844,1.56616-.09793,15.10222-6.46334,14.99036-9.48016,4.68304c-.84378,.4168-1.39,1.3665-1.39,2.41661l-.00011,.00003Z" fill="#2f2e41"/></g><path d="M121.40593,70.49745l-30.99834,5.39101c-2.13559-5.46579-16.47307-42.54879-17.35857-47.90032C70.74686,14.07511,81.12014,1.24816,95.18325,.19867h.00005c13.48814-1.00658,21.70534,1.51938,22.85326,14.367,.40236,4.50321,4.26672,16.56659,5.44772,20.93076,6.51556,24.07697-.52003,29.87037-2.07834,35.00102Z" fill="#2f2e41"/><path d="M70.86517,149.34104l-2.02163,30.99834-19.20549,95.35358,1.34775,66.71381,17.5208-2.69551,5.39101-61.3228,30.42262-69.07238,3.9451,143.19884,18.86855,.67388,13.26058-168.16821c1.01319-12.84915-2.35442-25.66276-9.55424-36.3534v-.00002l-59.97505,.67388Z" fill="#2f2e41"/><path d="M109.95003,49.60727h-24.73181l-5.59265,8.7604-19.54243,8.08652,10.78203,76.82196-2.69551,33.01997c15.23536,5.16951,50.59214,13.171,76.16536-7.94676l-22.92909-41.24626,5.39101-57.95341-10.44509-9.50326-6.40183-10.03917Z" fill="#6c63ff"/><path d="M75.24537,64.09562s-11.45591-4.71714-16.84692,4.04326c-2.93372,4.76729-8.46172,37.47309-12.89168,66.29813-3.71056,24.14406-6.65075,45.56543-6.65075,45.56543l11.79285,1.68469,13.17424-47.15995,10.07451-36.06384,1.34775-34.36772Z" fill="#6c63ff"/><circle cx="96.26738" cy="26.5653" r="18.68574" fill="#ffb6b6"/><g><polygon points="397.6009 376.96544 406.89182 382.06282 430.97637 348.65319 417.26404 341.12956 397.6009 376.96544" fill="#ffb6b6"/><path d="M429.54673,394.22206h0c.02192,.64593-.68834,2.30211-.99925,2.86867h0c-.95565,1.74145-3.14208,2.37851-4.88359,1.42283l-28.77137-15.7888c-1.18801-.65194-1.62263-2.14354-.97066-3.3316l.65734-1.19784s.55235-4.3812,5.91774-7.21052c0,0,1.73527,5.47313,10.16374,3.0175l3.20021-2.02657,6.95441,14.87065,6.00399,4.32604c1.31356,.94643,2.67242,1.43153,2.72732,3.04957l.00011,.00006Z" fill="#2f2e41"/></g><g><polygon points="416.66462 392.75064 427.262 392.74961 432.30324 351.87352 416.66249 351.87461 416.66462 392.75064" fill="#ffb6b6"/><path d="M452.97259,392.51024h0c.32997,.55572,.50407,2.34935,.50407,2.99561h0c0,1.98643-1.6103,3.59679-3.59679,3.59679h-32.81887c-1.35513,0-2.45375-1.09855-2.45375-2.45375v-1.36635s-1.62352-4.10661,1.71902-9.16822c0,0,4.15432,3.96332,10.36195-2.2443l1.83057-3.31622,13.25084,9.69099,7.34474,.90407c1.60688,.19777,3.03153-.03069,3.85808,1.36139h.00013Z" fill="#2f2e41"/></g><polygon points="424.4259 169.86184 420.03243 200.52324 414.31775 367.98164 434.39609 367.98164 456.09811 213.66384 456.09811 294.72539 410.27448 344.39595 424.80263 354.50411 486.01625 297.0609 497.2046 186.70876 488.4442 170.53572 424.4259 169.86184" fill="#2f2e41"/><path d="M471.26034,48.20544l-18.92532-.85607-6.00813,9.61647-24.99187,12.38353,3.42782,73.87271-6.73877,33.69384s63.13791,22.91098,79.31095,9.43344l-4.51062-47.84443,3.51062-68.15557-16.31428-7.99251-8.7604-14.15141Z" fill="#6c63ff"/><circle cx="463.49239" cy="23.57138" r="19.57161" fill="#ffb6b6"/><path d="M448.02132,39.56096c1.42121,.13896,1.5017,2.88953,2.85265,3.30307,1.23551,.37821,3.39118-1.24188,3.60335-3.00279,.16907-1.40327-1.01904-1.87526-2.70251-4.80446-.98965-1.72197,.61743-1.25961,.56021-3.70741-.01704-.72898-2.69981-5.16067-1.31091-7.10264,.45968-.64273,1.11115-1.55361,2.25209-1.95181,1.71686-.5992,2.63891,.62671,4.80446,.7507,2.07007,.11851-1.33854,2.07844,1.0607,.54169,2.45267-1.57097,3.38337-5.65226,3.36938-7.41265-.01439-1.81109-.4175,1.60379,0,0,.21046-.80845,8.42273,6.41861,8.82426,6.17471,2.5863-1.57097,3.88627-4.51639,6.6749-2.80532,3.02577,1.85657,4.39613,1.11643,5.39101,.67388,.8172-.36351,.144-7.30649-.09683-8.43277-.66242-3.098-4.08861-4.54658-4.35405-4.65433-1.77224-.71943-2.42106-.194-3.45321-1.05098-1.46589-1.2171-.63252-2.67161-1.80167-3.90363-1.28771-1.35696-2.79999,1.12804-8.36016,1.17315-3.57391,.02899-3.71732-2.03473-5.60282-1.92385-1.56412,.09199-6.75601,.39731-11.4106,4.05377-5.03864,3.95815-6.37189,9.42705-6.75628,11.11032-.89827,3.93363-1.26548,10.94589,2.10195,14.71367,.80739,.90338,2.04291,1.85904,2.55237,3.75349,.57453,2.13639-.09015,4.2921,.7507,4.65433,.35243,.15183,.52879-.2012,1.05098-.15014Z" fill="#2f2e41"/><path d="M0,399.77784c0,.66003,.53003,1.19,1.19006,1.19H555.48004c.65997,0,1.19-.52997,1.19-1.19,0-.65997-.53003-1.19-1.19-1.19H1.19006c-.66003,0-1.19006,.53003-1.19006,1.19Z" fill="#ccc"/><path d="M421.315,187.34936H135.35504c-10.48999,0-19.02002,8.52997-19.02002,19.01996v173.96002c0,10.48999,8.53003,19.02002,19.02002,19.02002H421.315c10.48999,0,19.02002-8.53003,19.02002-19.02002V206.36932c0-10.48999-8.53003-19.01996-19.02002-19.01996Z" fill="#fff"/><path d="M421.315,187.34936H135.35504c-10.48999,0-19.02002,8.52997-19.02002,19.01996v173.96002c0,10.48999,8.53003,19.02002,19.02002,19.02002H421.315c10.48999,0,19.02002-8.53003,19.02002-19.02002V206.36932c0-10.48999-8.53003-19.01996-19.02002-19.01996Zm17.02002,135.3037c0,41.25363-33.44267,74.6963-74.6963,74.6963H135.35504c-9.3999,0-17.02002-7.62012-17.02002-17.02002V206.36932c0-9.39986,7.62009-17.01996,17.01996-17.01996H421.315c9.3999,0,17.02002,7.62012,17.02002,17.02002v116.28368Z" fill="#3f3d56"/><path d="M142.39509,194.22057c-.40161-2.02836-.3118-3.97925,.16337-5.58086l-5.04638-19.08113,9.14981-2.13566,4.13391,19.58585c1.04964,1.2997,1.87607,3.06917,2.27768,5.09753,.91748,4.63378-.72921,8.86346-3.67797,9.4473-2.94876,.58384-6.08294-2.69925-7.00042-7.33302h0Z" fill="#ffb6b6"/><path d="M114.33022,64.7695s11.45591-4.71714,16.84692,4.04326c5.39101,8.7604,19.54243,111.86356,19.54243,111.86356l-11.79285,1.68469-23.24875-83.22379-1.34775-34.36772Z" fill="#6c63ff"/><path d="M396.74277,197.26029c.27647-2.06551,.99372-3.89781,1.96313-5.27193l-2.20184-44.70345,16.73558-2.23468-6.19605,48.05213c.57397,1.58033,.78413,3.53653,.50766,5.60204-.63159,4.71865-3.56316,8.22056-6.54784,7.82178-2.98468-.39878-4.89222-4.54724-4.26063-9.26587h0Z" fill="#ffb6b6"/><path d="M439.68922,71.12887s-15.85981-5.98998-21.13474-.56055c-5.27493,5.42943-22.78448,65.9528-22.78448,65.9528l1.64026,45.07561,12.49403-2.15613,29.78492-108.31172Z" fill="#6c63ff"/><path d="M245.36505,358.03633h-28.06006c-1.40997,0-2.56,1.15002-2.56,2.56,0,1.41998,1.15002,2.57001,2.56,2.57001h28.06006c1.40997,0,2.56-1.15002,2.56-2.57001,0-1.40997-1.15002-2.56-2.56-2.56Z" fill="#e6e6e6"/><path d="M292.36505,358.03633h-28.06006c-1.40997,0-2.56,1.15002-2.56,2.56,0,1.41998,1.15002,2.57001,2.56,2.57001h28.06006c1.40997,0,2.56-1.15002,2.56-2.57001,0-1.40997-1.15002-2.56-2.56-2.56Z" fill="#e6e6e6"/><path d="M339.36505,358.03633h-28.06006c-1.40997,0-2.56,1.15002-2.56,2.56,0,1.41998,1.15002,2.57001,2.56,2.57001h28.06006c1.40997,0,2.56-1.15002,2.56-2.57001,0-1.40997-1.15002-2.56-2.56-2.56Z" fill="#e6e6e6"/><g><path d="M452.83502,94.34936c0-5.23828,4.26172-9.5,9.5-9.5,5.23828,0,9.5,4.26172,9.5,9.5s-4.26172,9.5-9.5,9.5c-5.23828,0-9.5-4.26172-9.5-9.5Zm1,0c0,4.68652,3.81299,8.5,8.5,8.5,4.68701,0,8.5-3.81348,8.5-8.5s-3.81299-8.5-8.5-8.5c-4.68701,0-8.5,3.81348-8.5,8.5Z" fill="#3f3d56"/><circle cx="462.33502" cy="94.34936" r="5" fill="#3f3d56"/></g><path d="M473.64444,102.07751c1.30858,1.60098,2.14706,3.36479,2.48118,5.00164l33.91153,28.69151-9.8094,13.69651-30.60388-37.07379c-1.53765-.65314-3.09933-1.82583-4.40791-3.42681-2.98945-3.65744-3.52607-8.16453-1.19861-10.06689,2.32746-1.90236,6.63763-.4796,9.62707,3.17783h0Z" fill="#ffb6b6"/><path d="M487.09645,70.78031s9.43428-4.71714,14.82529,3.36938c5.39101,8.08652,10.87754,49.89202,10.87754,49.89202,0,0,6.64326,28.95158-6.1604,28.2777-12.80366-.67388-36.30385-36.83549-36.30385-36.83549l9-8,1.02266-9.74853,6.73877-26.95507Z" fill="#6c63ff"/><path d="M93.97695,3.17262c-7.60062,1.33743-14.96605,5.45258-18.90924,12.08654-3.94319,6.63396-11.16814,15.87716-5.93007,21.54468,1.81043,1.95886,4.11695,3.44175,5.74553,5.55422,2.77133,3.59476,3.17157,8.64549,1.78962,12.969s-4.34565,7.9896-7.73629,11.00723c7.25776-.74874,13.88133-5.90489,16.38777-12.75715,1.15985-3.17087,1.39592-6.97442-.58875-9.70586-1.04378-1.43653-2.58113-2.41857-3.90693-3.59981-3.41944-3.0466-1.22336-7.64853-1.20302-12.22827s.59689-7.76592,4.04326-10.78203c2.37347,1.8969,10.24363,1.43894,13.24276,.9523,2.99913-.48664,11.38654,11.03204,13.03844,8.48198,3.23374,4.15672,1.02121-4.4089,.41411,.82243-.43433,3.74256-2.89171,6.97085-3.63262,10.66496-.64474,3.21461,.05988,6.5598,1.19239,9.63662,2.55466,6.9406,7.34433,13.03873,13.48203,17.1651-3.54377-5.01207-7.23832-10.48941-7.12173-16.62664,.08648-4.55209,7.78516-13.94748,9.14336-18.29309,2.59893-8.31535-2.55362-17.53005-8.08652-24.25957-4.85898-5.90985-14.25182-4.08367-21.69996-2.33402" fill="#2f2e41"/><g><path d="M337.92914,277.75097c4.54504,3.98828-.95987,11.8698-2.73469,17.32528-2.76513,8.4995-11.49262,13.55612-20.29417,12.00046-6.81769-1.20502-13.67877-2.05663-20.581-2.54571-7.35986-.52002-14.76001-.63-22.21997-.33002-7.75,.31-15.55005,1.08002-23.42017,2.31l-.1317,.02044c-9.03164,1.4051-17.68699-4.01936-20.29699-12.77908-1.51052-5.06964-6.20644-12.02328-2.32131-16.00137,11.99109-12.27771,5.61877-16.38232,4.20837-21.33221-2.21082-7.75922,10.65189-12.00671,18.67841-11.18847,.33445,.03409,.6689,.06766,1.00335,.1007,11.8501,1.16998,23.69995,1.63,35.55005,1.38,2.97998-.05005,5.96997-.16003,8.94995-.31,6.75945-.33318,13.51479-.89624,20.27129-1.69179,7.85142-.92448,21.62886,3.23189,18.63887,10.55025-3.08081,7.54059-3.4198,15.3667,4.69971,22.49152Z" fill="#6c63ff" opacity=".7"/><path d="M294.31927,246.401v58.13c-7.35986-.52002-14.76001-.63-22.21997-.33002-7.75,.31-15.55005,1.08002-23.42017,2.31,1.05005-9.72998,.38013-19.63,7.89014-23.26001,9.29004-4.5,1.04004-22.66998-6.75-37.91998,11.8501,1.16998,23.69995,1.63,35.55005,1.38,2.97998-.05005,5.96997-.16003,8.94995-.31Z" fill="#3f3d56" opacity=".7"/><path d="M337.92914,277.75097c4.45923,4.08411-.95987,11.8698-2.73469,17.32528-2.76513,8.4995-11.49262,13.55612-20.29417,12.00046-6.81769-1.20502-13.67877-2.05663-20.581-2.54571-7.35986-.52002-14.76001-.63-22.21997-.33002-6.97998-9.01001-9.65015-17.28003-3.22998-22.48999,7.27002-5.89001,9.80005-20.37,16.5-35,2.97998-.05005,5.96997-.16003,8.94995-.31,6.75945-.33318,13.51479-.89624,20.27129-1.69179,7.85142-.92448,21.96565,3.37868,18.63887,10.55025-3.29736,7.10815-3.70764,14.79138,4.69971,22.49152Z" fill="#ff6884" opacity=".7"/></g><path d="M269.60915,293.48515h-28.06006c-1.40997,0-2.56,1.15002-2.56,2.56,0,1.41998,1.15002,2.57001,2.56,2.57001h28.06006c1.40997,0,2.56-1.15002,2.56-2.57001,0-1.40997-1.15002-2.56-2.56-2.56Z" fill="#3f3d56"/><path d="M319.60915,275.48515h-28.06006c-1.40997,0-2.56,1.15002-2.56,2.56,0,1.41998,1.15002,2.57001,2.56,2.57001h28.06006c1.40997,0,2.56-1.15002,2.56-2.57001,0-1.40997-1.15002-2.56-2.56-2.56Z" fill="#3f3d56"/><path d="M280.60915,258.48515h-28.06006c-1.40997,0-2.56,1.15002-2.56,2.56,0,1.41998,1.15002,2.57001,2.56,2.57001h28.06006c1.40997,0,2.56-1.15002,2.56-2.57001,0-1.40997-1.15002-2.56-2.56-2.56Z" fill="#3f3d56"/><g><rect x="137.7164" y="289.31088" width="104.0089" height="1" fill="#3f3d56"/><path d="M158.7253,299.16432c-5.23828,0-9.5-4.26172-9.5-9.5s4.26172-9.5,9.5-9.5,9.5,4.26172,9.5,9.5-4.26172,9.5-9.5,9.5Zm0-18c-4.68701,0-8.5,3.81348-8.5,8.5s3.81299,8.5,8.5,8.5,8.5-3.81348,8.5-8.5-3.81299-8.5-8.5-8.5Z" fill="#3f3d56"/><circle cx="158.7253" cy="289.66432" r="5" fill="#6c63ff"/></g><g><rect x="306.94474" y="284.31088" width="104.0089" height="1" fill="#3f3d56"/><path d="M380.44474,284.66432c0-5.23828,4.26172-9.5,9.5-9.5,5.23828,0,9.5,4.26172,9.5,9.5,0,5.23828-4.26172,9.5-9.5,9.5-5.23828,0-9.5-4.26172-9.5-9.5Zm1,0c0,4.68652,3.81299,8.5,8.5,8.5,4.68701,0,8.5-3.81348,8.5-8.5,0-4.68652-3.81299-8.5-8.5-8.5-4.68701,0-8.5,3.81348-8.5,8.5Z" fill="#3f3d56"/><circle cx="389.94474" cy="284.66432" r="5" fill="#ff6884"/></g><g><rect x="166.7164" y="253.31088" width="104.0089" height="1" fill="#3f3d56"/><path d="M187.7253,263.16432c-5.23828,0-9.5-4.26172-9.5-9.5s4.26172-9.5,9.5-9.5,9.5,4.26172,9.5,9.5-4.26172,9.5-9.5,9.5Zm0-18c-4.68701,0-8.5,3.81348-8.5,8.5s3.81299,8.5,8.5,8.5,8.5-3.81348,8.5-8.5-3.81299-8.5-8.5-8.5Z" fill="#3f3d56"/><circle cx="187.7253" cy="253.66432" r="5" fill="#3f3d56"/></g></svg>